<?xml version="1.0" standalone="no"?>
<!DOCTYPE svg PUBLIC "-//W3C//DTD SVG 20010904//EN"
 "http://www.w3.org/TR/2001/REC-SVG-20010904/DTD/svg10.dtd">
<svg version="1.0" xmlns="http://www.w3.org/2000/svg"
 width="784.000000pt" height="784.000000pt" viewBox="0 0 784.000000 784.000000"
 preserveAspectRatio="xMidYMid meet">
<metadata>
Created by potrace 1.11, written by Peter Selinger 2001-2013
</metadata>
<g transform="translate(0.000000,784.000000) scale(0.100000,-0.100000)"
fill="#000000" stroke="none">
<path d="M3860 7815 c-61 -27 -112 -47 -120 -49 -7 -2 -69 -27 -105 -42 -16
-7 -77 -31 -135 -54 -58 -22 -114 -45 -125 -49 -11 -5 -56 -23 -100 -41 -44
-17 -89 -35 -100 -40 -18 -7 -50 -20 -65 -25 -3 -1 -14 -5 -25 -10 -11 -4 -76
-30 -145 -58 -69 -27 -138 -55 -155 -62 -16 -7 -61 -25 -100 -40 -38 -15 -79
-31 -90 -35 -11 -5 -65 -27 -120 -49 -55 -22 -202 -80 -327 -130 -125 -50
-233 -92 -240 -93 -7 -2 -15 -5 -18 -9 -3 -3 -50 -22 -105 -43 -55 -21 -106
-43 -112 -48 -7 -6 -13 -8 -13 -5 0 3 -17 -1 -37 -10 -21 -8 -49 -20 -63 -26
-14 -6 -27 -11 -30 -12 -3 -1 -14 -5 -25 -10 -11 -5 -114 -46 -230 -92 -115
-46 -219 -87 -230 -92 -85 -36 -135 -55 -167 -64 -21 -6 -38 -15 -38 -19 0 -4
-8 -8 -17 -8 -9 0 -36 -9 -60 -21 -24 -11 -49 -22 -55 -23 -7 -2 -25 -8 -40
-14 l-28 -12 0 -3265 0 -3265 402 2 403 3 0 982 0 982 205 77 c113 43 249 94
304 114 l99 38 46 -20 c25 -11 66 -29 91 -40 25 -11 59 -26 75 -33 17 -7 57
-24 90 -38 59 -25 115 -49 125 -52 42 -15 80 -38 81 -50 4 -62 1 -143 -4 -152
-4 -7 -4 -14 0 -16 5 -3 7 -40 5 -84 -1 -43 -3 -84 -2 -90 0 -7 0 -42 0 -78 0
-36 0 -72 0 -80 0 -8 0 -44 0 -80 0 -36 0 -72 0 -80 0 -8 0 -44 0 -80 0 -36 0
-72 0 -80 0 -8 0 -44 0 -80 0 -36 0 -72 0 -80 0 -8 0 -44 0 -80 0 -36 0 -72 0
-80 0 -8 0 -44 0 -80 0 -36 0 -72 0 -80 0 -8 0 -44 0 -80 0 -36 0 -72 0 -80 0
-8 0 -44 0 -80 0 -36 0 -71 -1 -77 0 -7 2 -39 3 -70 2 -32 1 -66 -3 -75 -3
-10 -3 -32 2 -50 4 -20 3 -33 -3 -33 -5 0 -6 -6 -1 -12 4 -7 7 -33 8 -58 l0
-45 401 -3 400 -2 0 1256 -1 1256 -40 18 c-22 11 -143 62 -270 116 -126 53
-304 128 -395 166 -213 91 -214 91 -220 93 -3 1 -23 9 -45 19 -22 10 -62 27
-89 37 -27 11 -68 28 -90 38 -146 66 -140 65 -198 46 -29 -10 -59 -22 -65 -28
-7 -5 -13 -6 -13 -1 0 4 -5 3 -12 -4 -7 -7 -19 -12 -27 -12 -9 -1 -34 -9 -56
-20 -22 -11 -47 -19 -56 -20 -9 0 -19 -3 -23 -7 -4 -5 -11 -8 -14 -9 -4 0 -18
-5 -32 -11 -54 -22 -246 -92 -260 -95 -12 -3 -14 67 -15 525 0 350 3 531 10
536 5 5 26 13 45 20 46 15 452 172 495 191 17 8 59 22 75 25 3 1 22 9 44 18
21 9 40 17 43 17 2 0 23 8 46 19 42 18 153 61 172 65 6 2 24 8 40 15 17 7 59
24 95 38 36 13 92 35 125 48 33 13 89 35 125 49 36 13 107 41 159 61 101 40
116 41 198 4 26 -11 57 -25 68 -30 42 -19 241 -100 250 -103 6 -1 24 -9 40
-16 48 -21 80 -34 265 -110 96 -39 189 -78 205 -85 17 -7 57 -23 90 -36 33
-13 63 -28 67 -34 4 -5 8 -7 8 -3 0 8 361 -140 370 -153 3 -4 5 -883 5 -1953
l0 -1946 402 0 402 0 -1 2219 0 2219 -77 32 c-42 18 -116 50 -166 71 -94 40
-239 99 -315 129 -25 10 -99 40 -165 68 -66 27 -172 71 -235 97 -63 26 -131
54 -150 62 -62 27 -73 31 -200 84 -120 49 -169 69 -180 72 -3 0 -53 22 -112
48 -60 26 -108 45 -108 42 0 -3 -6 0 -13 6 -8 6 -17 8 -20 4 -4 -3 -7 -1 -7 5
0 7 -5 12 -10 12 -10 0 -63 22 -365 147 l-129 54 -46 -17 c-25 -9 -58 -22 -75
-29 -16 -7 -57 -23 -90 -35 -33 -12 -69 -26 -80 -31 -11 -4 -72 -28 -135 -52
-63 -24 -124 -48 -135 -52 -11 -5 -22 -9 -25 -10 -3 0 -43 -16 -90 -34 -120
-46 -200 -77 -277 -107 -38 -14 -82 -32 -100 -40 -17 -8 -35 -14 -41 -14 -8 0
-52 -17 -127 -50 -11 -5 -49 -19 -85 -31 -36 -12 -69 -25 -75 -29 -12 -8 -173
-68 -195 -72 -12 -3 -14 77 -15 600 0 332 2 607 5 612 3 5 68 34 145 65 77 30
149 59 160 64 24 11 338 135 345 137 3 0 16 6 30 11 14 6 72 30 130 53 58 22
114 45 125 50 11 5 56 23 100 40 44 17 89 35 100 40 11 5 90 37 175 71 85 34
166 66 180 72 14 5 30 11 36 12 6 2 27 10 45 18 35 16 506 206 524 211 6 2 19
7 30 11 11 5 94 38 185 74 l165 66 135 -53 c147 -58 158 -62 212 -86 20 -9 40
-16 45 -16 4 -1 26 -9 48 -20 22 -11 44 -19 48 -20 4 0 27 -8 50 -19 23 -10
74 -30 112 -45 39 -15 79 -31 90 -36 11 -5 45 -19 75 -30 30 -11 66 -26 80
-32 14 -6 34 -14 45 -19 11 -4 61 -24 110 -44 50 -20 97 -38 106 -40 9 -2 25
-8 35 -13 27 -14 55 -25 164 -68 52 -20 101 -41 108 -46 6 -6 12 -8 12 -4 0 4
18 -3 40 -14 22 -11 40 -18 40 -15 0 4 12 -1 28 -9 15 -8 47 -22 72 -31 25 -9
59 -23 75 -30 17 -7 66 -27 110 -44 44 -18 89 -36 100 -41 11 -4 47 -18 80
-31 33 -12 64 -26 70 -31 5 -4 14 -8 21 -8 6 0 29 -8 50 -17 22 -9 44 -17 49
-19 6 -1 33 -12 60 -24 28 -12 59 -26 70 -30 11 -4 47 -18 80 -32 l60 -24 0
-2989 1 -2990 402 -3 402 -2 0 3263 0 3264 -22 11 c-13 6 -70 30 -128 52 -58
22 -114 45 -125 50 -11 5 -130 53 -265 106 -297 117 -284 112 -290 111 -3 0
-16 6 -30 13 -14 8 -27 15 -30 15 -7 2 -61 24 -85 34 -11 5 -51 21 -90 36 -38
15 -81 32 -95 38 -14 5 -29 11 -35 13 -5 1 -235 93 -510 204 -275 111 -504
203 -510 204 -5 2 -23 8 -38 14 -93 38 -132 54 -217 87 -52 21 -108 43 -125
50 -16 8 -61 26 -100 41 -38 14 -83 32 -100 39 -16 7 -61 25 -100 40 -38 15
-106 42 -150 60 -78 32 -115 46 -125 50 -16 6 -49 19 -77 31 -38 17 -36 17
-103 -11z"/>
</g>
</svg>
