<svg xmlns="http://www.w3.org/2000/svg" width="254.895" height="489.57" viewBox="0 0 254.895 489.57">
  <g id="Group_26" data-name="Group 26" transform="translate(-323.455 -2829.808)">
    <g id="Group_23" data-name="Group 23">
      <g id="Group_22" data-name="Group 22">
        <circle id="Ellipse_10" data-name="Ellipse 10" cx="41.125" cy="41.125" r="41.125" transform="translate(409.778 2899.2)" fill="none" stroke="#e6e6e6" stroke-miterlimit="10" stroke-width="5"/>
        <path id="Path_35" data-name="Path 35" d="M421.969,2994.681l20.964,36.3L423.354,3140.8H385.106V3004.543l65.8-21.262,65.8,26.262V3140.8H478.08L458.5,3030.982l23.192-36.179" fill="none" stroke="#e6e6e6" stroke-miterlimit="10" stroke-width="5"/>
        <path id="Path_36" data-name="Path 36" d="M423.354,3140.8" fill="none" stroke="#e6e6e6" stroke-miterlimit="10" stroke-width="5"/>
      </g>
      <path id="Path_37" data-name="Path 37" d="M575.851,3319.378V2882.371L450.9,2832.5l-124.948,49.871v262.775" fill="none" stroke="#e6e6e6" stroke-miterlimit="10" stroke-width="5"/>
    </g>
    <g id="Group_25" data-name="Group 25">
      <g id="Group_24" data-name="Group 24">
        <circle id="Ellipse_11" data-name="Ellipse 11" cx="41.125" cy="41.125" r="41.125" transform="translate(409.778 2899.2)" fill="none" stroke="#efeeed" stroke-miterlimit="10" stroke-width="5"/>
        <path id="Path_38" data-name="Path 38" d="M421.969,2994.681l20.964,36.3L423.354,3140.8H385.106V3004.543l65.8-21.262,65.8,26.262V3140.8H478.08L458.5,3030.982l23.192-36.179" fill="none" stroke="#efeeed" stroke-miterlimit="10" stroke-width="5"/>
        <path id="Path_39" data-name="Path 39" d="M423.354,3140.8" fill="none" stroke="#efeeed" stroke-miterlimit="10" stroke-width="5"/>
      </g>
      <path id="Path_40" data-name="Path 40" d="M575.851,3319.378V2882.371L450.9,2832.5l-124.948,49.871v262.775" fill="none" stroke="#efeeed" stroke-miterlimit="10" stroke-width="5"/>
    </g>
  </g>
</svg>
