<svg xmlns="http://www.w3.org/2000/svg" width="117.294" height="108.083" viewBox="0 0 117.294 108.083"><defs><style>.a,.b,.c{fill:none;stroke-miterlimit:10;}.a,.b{stroke:#e6e6e6;}.a,.c{stroke-width:5px;}.b{stroke-width:8.25px;}.c{stroke:#f2f2f2;}</style></defs><g transform="translate(-695.125 -7971.855)"><circle class="a" cx="17.547" cy="17.547" r="17.547" transform="translate(708.151 7974.355)"/><path class="a" d="M713.353,8015.094l8.945,15.488-8.354,46.856H697.625V8019.3l28.073-9.072,28.073,11.205v56H737.294l-8.354-46.856,9.9-15.437"/><path class="b" d="M713.944,8077.438"/><circle class="c" cx="17.547" cy="17.547" r="17.547" transform="translate(708.151 7974.355)"/><path class="c" d="M713.353,8015.094l8.945,15.488-8.354,46.856H697.625V8019.3l28.073-9.072,28.073,11.205v56H737.294l-8.354-46.856,9.9-15.437"/><path class="c" d="M713.944,8077.438"/><circle class="a" cx="17.547" cy="17.547" r="17.547" transform="translate(764.298 7974.355)"/><path class="a" d="M793.6,8077.438h16.319v-56.674l-28.073-10.535-28.073,11.205v56h16.478"/><path class="b" d="M793.6,8077.438"/><circle class="c" cx="17.547" cy="17.547" r="17.547" transform="translate(764.298 7974.355)"/><path class="c" d="M793.6,8077.438h16.319v-56.674l-28.073-10.535-28.073,11.205v56h16.478"/><path class="c" d="M793.6,8077.438"/></g></svg>