<svg xmlns="http://www.w3.org/2000/svg" width="220.745" height="278.1" viewBox="0 0 220.745 278.1"><defs><style>.a{fill:none;stroke:#e2dfdd;stroke-miterlimit:10;stroke-width:6px;}</style></defs><g transform="translate(-849.627 -5512.078)"><line class="a" y2="141.721" transform="translate(960.867 5648.457)"/><ellipse class="a" cx="41.636" cy="19.197" rx="41.636" ry="19.197" transform="translate(852.627 5611.316)"/><line class="a" x2="16.718" transform="translate(935.9 5630.513)"/><ellipse class="a" cx="13.292" cy="28.83" rx="13.292" ry="28.83" transform="matrix(0.707, -0.707, 0.707, 0.707, 874.604, 5563.958)"/><line class="a" x2="8.185" y2="8.185" transform="translate(924.774 5595.33)"/><ellipse class="a" cx="28.83" cy="13.292" rx="28.83" ry="13.292" transform="matrix(0.707, -0.707, 0.707, 0.707, 875.011, 5697.637)"/><line class="a" y1="8.185" x2="8.185" transform="translate(925.181 5658.08)"/><ellipse class="a" cx="28.83" cy="13.292" rx="28.83" ry="13.292" transform="matrix(0.707, -0.707, 0.707, 0.707, 989.39, 5585.931)"/><line class="a" x1="8.185" y2="8.185" transform="translate(990.604 5595.33)"/><ellipse class="a" cx="13.292" cy="28.83" rx="13.292" ry="28.83" transform="matrix(0.707, -0.707, 0.707, 0.707, 988.983, 5675.664)"/><line class="a" x1="8.185" y1="8.185" transform="translate(990.197 5658.08)"/><ellipse class="a" cx="41.636" cy="19.197" rx="41.636" ry="19.197" transform="translate(984.1 5611.316)"/><line class="a" x1="16.718" transform="translate(967.382 5630.513)"/><ellipse class="a" cx="19.197" cy="41.636" rx="19.197" ry="41.636" transform="translate(941.67 5515.078)"/><line class="a" y2="16.718" transform="translate(960.867 5598.35)"/></g></svg>