<svg xmlns="http://www.w3.org/2000/svg" width="101.816" height="101.774" viewBox="0 0 101.816 101.774"><defs><style>.a,.b,.c{fill:none;stroke-miterlimit:10;}.a,.b{stroke:#e6e6e6;}.a,.c{stroke-width:5px;}.b{stroke-width:8.25px;}.c{stroke:#f2f2f2;}</style></defs><g transform="translate(-1080.409 -8220.776)"><circle class="a" cx="8.674" cy="8.674" r="8.674" transform="translate(1082.909 8223.276)"/><path class="a" d="M1117.374,8265.959l-5.7,5.7-20.322-20.321,6.642-12.984,13.73-5.9,19.576,19.576-5.76,5.76"/><path class="b" d="M1117.374,8265.959"/><circle class="c" cx="8.674" cy="8.674" r="8.674" transform="translate(1082.909 8223.276)"/><path class="c" d="M1117.374,8265.959l-5.7,5.7-20.322-20.321,6.642-12.984,13.73-5.9,19.576,19.576-5.76,5.76"/><path class="c" d="M1117.374,8265.959"/><circle class="a" cx="8.674" cy="8.674" r="8.674" transform="translate(1082.909 8302.702)"/><path class="a" d="M1125.591,8285.585l5.7,5.705-20.322,20.321-12.984-6.642-5.9-13.73,19.576-19.576,5.76,5.76"/><path class="b" d="M1125.591,8285.585"/><circle class="c" cx="8.674" cy="8.674" r="8.674" transform="translate(1082.909 8302.702)"/><path class="c" d="M1125.591,8285.585l5.7,5.705-20.322,20.321-12.984-6.642-5.9-13.73,19.576-19.576,5.76,5.76"/><path class="c" d="M1125.591,8285.585"/><circle class="a" cx="8.674" cy="8.674" r="8.674" transform="translate(1162.334 8223.276)"/><path class="a" d="M1137,8257.741l-5.7-5.7,20.322-20.322,12.984,6.643,5.9,13.729-19.576,19.576-5.76-5.76"/><path class="b" d="M1137,8257.741"/><circle class="c" cx="8.674" cy="8.674" r="8.674" transform="translate(1162.334 8223.276)"/><path class="c" d="M1137,8257.741l-5.7-5.7,20.322-20.322,12.984,6.643,5.9,13.729-19.576,19.576-5.76-5.76"/><path class="c" d="M1137,8257.741"/><circle class="a" cx="8.674" cy="8.674" r="8.674" transform="translate(1162.377 8302.659)"/><path class="a" d="M1145.26,8277.325l5.7-5.705,20.322,20.322-6.642,12.984-13.73,5.9-19.576-19.576,5.76-5.76"/><path class="b" d="M1145.26,8277.325"/><circle class="c" cx="8.674" cy="8.674" r="8.674" transform="translate(1162.377 8302.659)"/><path class="c" d="M1145.26,8277.325l5.7-5.705,20.322,20.322-6.642,12.984-13.73,5.9-19.576-19.576,5.76-5.76"/><path class="c" d="M1145.26,8277.325"/></g></svg>