<?xml version="1.0" encoding="utf-8"?>
<!-- Generator: Adobe Illustrator 24.0.0, SVG Export Plug-In . SVG Version: 6.00 Build 0)  -->
<svg version="1.1" id="Layer_1" xmlns="http://www.w3.org/2000/svg" xmlns:xlink="http://www.w3.org/1999/xlink" x="0px" y="0px"
	 viewBox="0 0 21.3 21.2" style="enable-background:new 0 0 21.3 21.2;" xml:space="preserve">
<style type="text/css">
	.st0{fill:#E2DFDD;}
</style>
<path class="st0" d="M10.7,0C4.8,0,0,4.8,0,10.7c0,5.2,3.8,9.7,9,10.5v-7.5H6.3v-3.1H9V8.3c0-2.7,1.6-4.2,4-4.2
	c0.8,0,1.6,0.1,2.4,0.2V7h-1.3c-0.8-0.1-1.6,0.5-1.7,1.3c0,0.1,0,0.2,0,0.3v2h3l-0.5,3.1h-2.5v7.5c5.8-0.9,9.8-6.4,8.8-12.2
	C20.3,3.8,15.9,0,10.7,0z"/>
</svg>
