<svg xmlns="http://www.w3.org/2000/svg" width="371.367" height="371.367" viewBox="0 0 371.367 371.367"><g transform="translate(2.5 2.5)"><g transform="translate(-281.67 -1297)"><path d="M494.447,1410.052V1346.63l-29.594-11.812L435.26,1346.63v63.422" fill="none" stroke="#e6e6e6" stroke-miterlimit="10" stroke-width="5"/><circle cx="18.497" cy="18.497" r="18.497" transform="translate(446.356 1297)" fill="none" stroke="#e6e6e6" stroke-miterlimit="10" stroke-width="5"/><path d="M477.7,1339.945l-9.429,16.327,8.806,49.394h17.37" fill="none" stroke="#e6e6e6" stroke-miterlimit="10" stroke-width="5"/><path d="M451.84,1339.945l9.429,16.327-8.806,49.394h-17.37" fill="none" stroke="#e6e6e6" stroke-miterlimit="10" stroke-width="5"/></g><g transform="translate(-281.67 -1297)"><path d="M436.342,1410.218,391.5,1365.371l-29.278,12.574-12.574,29.278,44.847,44.846" fill="none" stroke="#e6e6e6" stroke-miterlimit="10" stroke-width="5"/><circle cx="18.497" cy="18.497" r="18.497" transform="translate(330.059 1345.786)" fill="none" stroke="#e6e6e6" stroke-miterlimit="10" stroke-width="5"/><path d="M374.927,1372.486l4.878,18.213,41.154,28.7,12.282-12.282" fill="none" stroke="#e6e6e6" stroke-miterlimit="10" stroke-width="5"/><path d="M356.641,1390.772l18.212,4.878,28.7,41.154-12.282,12.282" fill="none" stroke="#e6e6e6" stroke-miterlimit="10" stroke-width="5"/></g><g transform="translate(-281.67 -1297)"><path d="M493.365,1410.218l44.846-44.847,29.278,12.574,12.574,29.278-44.846,44.846" fill="none" stroke="#e6e6e6" stroke-miterlimit="10" stroke-width="5"/><circle cx="18.497" cy="18.497" r="18.497" transform="translate(562.654 1345.786)" fill="none" stroke="#e6e6e6" stroke-miterlimit="10" stroke-width="5"/><path d="M554.78,1372.486,549.9,1390.7l-41.154,28.7-12.282-12.282" fill="none" stroke="#e6e6e6" stroke-miterlimit="10" stroke-width="5"/><path d="M573.066,1390.772l-18.213,4.878-28.7,41.154,12.282,12.282" fill="none" stroke="#e6e6e6" stroke-miterlimit="10" stroke-width="5"/></g><g transform="translate(-281.67 -1297)"><path d="M435.26,1550.315v63.423l29.594,11.812,29.594-11.812v-63.423" fill="none" stroke="#e6e6e6" stroke-miterlimit="10" stroke-width="5"/><circle cx="18.497" cy="18.497" r="18.497" transform="translate(446.356 1626.373)" fill="none" stroke="#e6e6e6" stroke-miterlimit="10" stroke-width="5"/><path d="M452.007,1620.422l9.429-16.327L452.63,1554.7H435.26" fill="none" stroke="#e6e6e6" stroke-miterlimit="10" stroke-width="5"/><path d="M477.867,1620.422l-9.429-16.327,8.806-49.394h17.37" fill="none" stroke="#e6e6e6" stroke-miterlimit="10" stroke-width="5"/></g><g transform="translate(-281.67 -1297)"><path d="M394.722,1450.59H331.3l-11.812,29.594,11.812,29.594h63.423" fill="none" stroke="#e6e6e6" stroke-miterlimit="10" stroke-width="5"/><circle cx="18.497" cy="18.497" r="18.497" transform="translate(281.67 1461.687)" fill="none" stroke="#e6e6e6" stroke-miterlimit="10" stroke-width="5"/><path d="M324.615,1467.337l16.327,9.429,49.394-8.806v-17.37" fill="none" stroke="#e6e6e6" stroke-miterlimit="10" stroke-width="5"/><path d="M324.615,1493.2l16.327-9.429,49.394,8.806v17.37" fill="none" stroke="#e6e6e6" stroke-miterlimit="10" stroke-width="5"/></g><g transform="translate(-281.67 -1297)"><path d="M534.985,1509.778h63.423l11.812-29.594-11.812-29.594H534.985" fill="none" stroke="#e6e6e6" stroke-miterlimit="10" stroke-width="5"/><circle cx="18.497" cy="18.497" r="18.497" transform="translate(611.042 1461.687)" fill="none" stroke="#e6e6e6" stroke-miterlimit="10" stroke-width="5"/><path d="M605.092,1493.03l-16.327-9.429-49.394,8.806v17.37" fill="none" stroke="#e6e6e6" stroke-miterlimit="10" stroke-width="5"/><path d="M605.092,1467.17l-16.327,9.429-49.394-8.806v-17.37" fill="none" stroke="#e6e6e6" stroke-miterlimit="10" stroke-width="5"/></g><g transform="translate(-281.67 -1297)"><path d="M493.365,1550.15,538.211,1595l29.278-12.574,12.574-29.278L535.217,1508.3" fill="none" stroke="#e6e6e6" stroke-miterlimit="10" stroke-width="5"/><circle cx="18.497" cy="18.497" r="18.497" transform="translate(562.654 1577.587)" fill="none" stroke="#e6e6e6" stroke-miterlimit="10" stroke-width="5"/><path d="M554.78,1587.881l-4.878-18.212-41.154-28.7-12.282,12.282" fill="none" stroke="#e6e6e6" stroke-miterlimit="10" stroke-width="5"/><path d="M573.066,1569.6l-18.213-4.878-28.7-41.154,12.282-12.282" fill="none" stroke="#e6e6e6" stroke-miterlimit="10" stroke-width="5"/></g><g transform="translate(-281.67 -1297)"><path d="M436.342,1550.15,391.5,1595l-29.278-12.574-12.574-29.278L394.49,1508.3" fill="none" stroke="#e6e6e6" stroke-miterlimit="10" stroke-width="5"/><circle cx="18.497" cy="18.497" r="18.497" transform="translate(330.059 1577.587)" fill="none" stroke="#e6e6e6" stroke-miterlimit="10" stroke-width="5"/><path d="M374.927,1587.881l4.878-18.212,41.154-28.7,12.282,12.282" fill="none" stroke="#e6e6e6" stroke-miterlimit="10" stroke-width="5"/><path d="M356.641,1569.6l18.212-4.878,28.7-41.154-12.282-12.282" fill="none" stroke="#e6e6e6" stroke-miterlimit="10" stroke-width="5"/></g></g></svg>