<svg xmlns="http://www.w3.org/2000/svg" width="185.172" height="80.141" viewBox="0 0 185.172 80.141"><g transform="translate(-319.895 -25.468)"><g transform="translate(420.25 51.869)"><g transform="translate(0 0.56)"><path d="M380.11,41.645h7.556V74.107h16.511v6.716H380.11Z" transform="translate(-380.11 -41.645)" fill="#e2dfdd"/></g><g transform="translate(28.939)"><path d="M405.039,60.955a13.2,13.2,0,0,0,13.368,13.936,13.71,13.71,0,0,0,8.731-3.023V63.417H417.063V56.7h17.629v17.4a20.591,20.591,0,0,1-16.454,7.5c-12.2,0-20.764-8.9-20.764-20.149s8.451-20.149,20.653-20.149a20.362,20.362,0,0,1,14.328,5.6l-4.87,5.148a13.094,13.094,0,0,0-22.546,8.9Z" transform="translate(-397.474 -41.309)" fill="#e2dfdd"/></g><g transform="translate(77.262 0.56)"><path d="M426.469,41.645h7.555V80.824h-7.555Z" transform="translate(-426.469 -41.645)" fill="#e2dfdd"/></g><g transform="translate(3.706 15.392)"><rect width="10.331" height="6.744" fill="#e2dfdd"/></g></g><g transform="translate(319.895 25.468)"><path d="M387.034,105.608h-8.218V44.435L353.464,34.316,328.112,44.435v61.173h-8.218V38.867l33.569-13.4,33.57,13.4Z" transform="translate(-319.895 -25.468)" fill="#e2dfdd"/></g><g transform="translate(319.895 74.3)"><path d="M347.753,86.076h-8.218V65.835L334.3,63.618l-6.19,2.336V86.076h-8.218v-25.8l14.583-5.5,13.275,5.623Z" transform="translate(-319.895 -54.769)" fill="#e2dfdd"/></g><g transform="translate(319.895 50.707)"><path d="M367.393,95.513h-8.218V55.623L344.264,49.46l-16.152,6.234V95.513h-8.218V50.056l24.474-9.444,23.025,9.515Z" transform="translate(-319.895 -40.612)" fill="#e2dfdd"/></g></g></svg>