<svg xmlns="http://www.w3.org/2000/svg" width="130.487" height="163.946" viewBox="0 0 130.487 163.946">
  <g id="Group_127" data-name="Group 127" transform="translate(-1362.943 -10474.081)">
    <g id="Group_126" data-name="Group 126">
      <g id="Group_124" data-name="Group 124">
        <circle id="Ellipse_54" data-name="Ellipse 54" cx="17.617" cy="17.617" r="17.617" transform="translate(1411.421 10523.456)" fill="none" stroke="#e2dfdd" stroke-miterlimit="10" stroke-width="5"/>
        <path id="Path_140" data-name="Path 140" d="M1411.343,10566.45l12.2,21.134-11.4,45.852h-22.267v-61.244l38.3-12.378,38.3,15.289v58.333h-22.483l-11.4-45.852,13.5-21.062" fill="none" stroke="#e2dfdd" stroke-miterlimit="10" stroke-width="5"/>
        <path id="Path_141" data-name="Path 141" d="M1412.149,10633.435" fill="none" stroke="#e2dfdd" stroke-miterlimit="10" stroke-width="8.25"/>
      </g>
      <g id="Group_125" data-name="Group 125">
        <circle id="Ellipse_55" data-name="Ellipse 55" cx="17.617" cy="17.617" r="17.617" transform="translate(1411.421 10523.456)" fill="none" stroke="#e2dfdd" stroke-miterlimit="10" stroke-width="5"/>
        <path id="Path_142" data-name="Path 142" d="M1411.343,10566.45l12.2,21.134-11.4,45.852h-22.267v-61.244l38.3-12.378,38.3,15.289v58.333h-22.483l-11.4-45.852,13.5-21.062" fill="none" stroke="#e2dfdd" stroke-miterlimit="10" stroke-width="5"/>
        <path id="Path_143" data-name="Path 143" d="M1412.149,10633.435" fill="none" stroke="#e2dfdd" stroke-miterlimit="10" stroke-width="5"/>
      </g>
    </g>
    <path id="Path_144" data-name="Path 144" d="M1490.93,10636.786v-134.971l-62.744-25.043-62.744,25.043v136.212" fill="none" stroke="#e2dfdd" stroke-miterlimit="10" stroke-width="5"/>
  </g>
</svg>
