<svg xmlns="http://www.w3.org/2000/svg" width="533.309" height="712.276" viewBox="0 0 533.309 712.276"><defs><style>.a,.b,.c{fill:none;stroke-miterlimit:10;}.a,.c{stroke:#e6e6e6;}.a{stroke-width:8.25px;}.b{stroke:#f2f2f2;stroke-width:6.386px;}.c{stroke-width:2.335px;}</style></defs><g transform="translate(1105.175 -140.519)"><circle class="a" cx="262.53" cy="262.53" r="262.53" transform="translate(-1101.05 323.61)"/><g transform="translate(-1045.872 144.96)"><path class="b" d="M-851.051,322.239v-135.9L-954.727,144.96-1058.4,186.341V411.411" transform="translate(1058.402 -144.96)"/><path class="b" d="M-970.962,315.659V281.507l-41.2-17.45-46.244,17.45V376.42" transform="translate(1058.402 -109.968)"/><path class="b" d="M-911.078,312.991V233.98l-71.139-29.4-76.186,29.4V404.867" transform="translate(1058.402 -127.444)"/><path class="a" d="M-851.051,322.239v-135.9L-954.727,144.96-1058.4,186.341V411.411" transform="translate(1058.402 -144.96)"/><path class="a" d="M-970.962,315.659V281.507l-41.2-17.45-46.244,17.45V376.42" transform="translate(1058.402 -109.968)"/><path class="a" d="M-911.078,312.991V233.98l-71.139-29.4-76.186,29.4V404.867" transform="translate(1058.402 -127.444)"/></g><g transform="translate(-1004.735 548.912)"><path class="c" d="M-968.152,530.312V468.844l-29.228-11.666-29.228,11.666v61.468" transform="translate(1026.607 -457.178)"/><line class="c" x2="58.455" transform="translate(0 25.074)"/><line class="c" x2="58.455" transform="translate(0 45.482)"/><path class="a" d="M-968.152,530.312V468.844l-29.228-11.666-29.228,11.666v61.468" transform="translate(1026.607 -457.178)"/><line class="a" x2="58.455" transform="translate(0 25.074)"/><line class="a" x2="58.455" transform="translate(0 45.482)"/></g><g transform="translate(-739.763 475.777)"><path class="c" d="M-763.352,473.786V412.318l-29.228-11.666-29.228,11.666v61.468" transform="translate(821.807 -400.652)"/><line class="c" x2="58.455" transform="translate(0 25.074)"/><line class="c" x2="58.455" transform="translate(0 45.482)"/><path class="a" d="M-763.352,473.786V412.318l-29.228-11.666-29.228,11.666v61.468" transform="translate(821.807 -400.652)"/><line class="a" x2="58.455" transform="translate(0 25.074)"/><line class="a" x2="58.455" transform="translate(0 45.482)"/></g><g transform="translate(-809.827 651.441)"><path class="c" d="M-817.505,609.558V548.09l-29.228-11.666-29.228,11.666v61.468" transform="translate(875.961 -536.424)"/><line class="c" x2="58.455" transform="translate(0 25.074)"/><line class="c" x2="58.455" transform="translate(0 45.482)"/><path class="a" d="M-817.505,609.558V548.09l-29.228-11.666-29.228,11.666v61.468" transform="translate(875.961 -536.424)"/><line class="a" x2="58.455" transform="translate(0 25.074)"/><line class="a" x2="58.455" transform="translate(0 45.482)"/></g></g></svg>